<?xml version="1.0" encoding="UTF-8"?>
<svg width="20px" height="20px" viewBox="0 0 20 20" version="1.1" xmlns="http://www.w3.org/2000/svg" xmlns:xlink="http://www.w3.org/1999/xlink">
    <title>Icon-delete</title>
    <g id="后台改版" stroke="none" stroke-width="1" fill="none" fill-rule="evenodd">
        <g id="灰鲸后台系统-个人中心-修改密码" transform="translate(-880.000000, -151.000000)" fill="#39404C" fill-rule="nonzero">
            <g id="编组-12" transform="translate(520.000000, 131.000000)">
                <g id="Icon-delete" transform="translate(360.000000, 20.000000)">
                    <g id="错误" transform="translate(4.000000, 4.000000)">
                        <path d="M11.7648933,0.235106722 C12.0783689,0.548582351 12.0783689,1.05829882 11.7648933,1.37177445 L1.37177445,11.7648933 C1.05829882,12.0783689 0.548582351,12.0783689 0.235106722,11.7648933 C-0.0783689073,11.4514176 -0.0783689073,10.9417012 0.235106722,10.6282255 L10.6282255,0.235106722 C10.9417012,-0.0783689073 11.4514176,-0.0783689073 11.7648933,0.235106722 Z" id="路径"></path>
                        <path d="M0.235106722,0.235106722 C0.548582351,-0.0783689073 1.05829882,-0.0783689073 1.37177445,0.235106722 L11.7648933,10.6282255 C12.0783689,10.9417012 12.0783689,11.4514176 11.7648933,11.7648933 C11.4514176,12.0783689 10.9417012,12.0783689 10.6282255,11.7648933 L0.235106722,1.37177445 C-0.0783689073,1.05829882 -0.0783689073,0.548582351 0.235106722,0.235106722 Z" id="路径"></path>
                    </g>
                </g>
            </g>
        </g>
    </g>
</svg>