<?xml version="1.0" encoding="UTF-8"?>
<svg width="20px" height="20px" viewBox="0 0 20 20" version="1.1" xmlns="http://www.w3.org/2000/svg" xmlns:xlink="http://www.w3.org/1999/xlink">
    <title>返回</title>
    <g id="后台改版" stroke="none" stroke-width="1" fill="none" fill-rule="evenodd">
        <g id="系统管理-成员管理-操作-从企业中移除用户" transform="translate(-893.000000, -370.000000)" fill="#39404C" fill-rule="nonzero">
            <g id="编组-10" transform="translate(873.000000, 344.000000)">
                <g id="返回" transform="translate(20.000000, 26.000000)">
                    <g transform="translate(6.000000, 3.000000)" id="路径">
                        <path d="M1.95387027,7.05600087 L7.76002482,1.3680771 C8.07999173,1.05501605 8.07999173,0.547466468 7.76002482,0.234795788 C7.44085488,-0.0782652626 6.92275522,-0.0782652626 6.6031868,0.234795788 L0.239377456,6.46862844 C-0.0797924853,6.78129912 -0.0797924853,7.28884871 0.239377456,7.60190976 C0.264544605,7.62656443 0.293305285,7.64612899 0.320867962,7.66687012 C0.325662461,7.67195709 0.329255944,7.6778274 0.334050443,7.68291433 L6.54846007,13.7707799 C6.86043976,14.0764067 7.36615612,14.0764067 7.67813262,13.7707799 C7.99010913,13.465153 7.99011231,12.9697346 7.67813262,12.6641108 L1.95385862,7.05600992 L1.95387027,7.05600087 Z"></path>
                    </g>
                </g>
            </g>
        </g>
    </g>
</svg>